<svg xmlns="http://www.w3.org/2000/svg" width="256" height="256"><path fill-opacity=".016" d="M0 128.004v128.004l128.25-.254 128.25-.254.254-127.75L257.008 0H0v128.004m.485.496c0 70.4.119 99.053.265 63.672.146-35.38.146-92.98 0-128C.604 29.153.485 58.1.485 128.5" fill="#1976D2" fill-rule="evenodd"/><path fill-opacity=".315" d="M108.909 1.484C87.807 5.5 69.83 15.342 54.028 31.531c-4.572 4.684-8.124 8.706-7.893 8.937.231.231 15.729.499 34.439.596 44.866.231 56.759 1.032 67.359 4.535 26.261 8.679 42.565 32.853 40.776 60.46-1.98 30.568-24.605 52.874-57.209 56.404-7.925.858-12.301 2.262-16.259 5.219-7.089 5.294-9.71 16.805-5.613 24.652 1.101 2.109 15.473 17.296 31.937 33.749l29.935 29.915 29.494.001 29.494.001-30.236-30.25-30.235-30.25 5.741-2.995c19.548-10.197 37.391-29.576 45.993-49.951 6.071-14.382 7.699-23.032 7.634-40.554-.049-13.376-.409-16.818-2.63-25.119-9.819-36.703-37.343-64.192-73.636-73.54-12.278-3.163-32.815-4.026-44.21-1.857M44.461 81.919c-9.691 1.56-15.403 6.523-17.38 15.101-.661 2.868-1.041 32.27-1.057 81.73L26 256h41V123.283l30.75-.525c28.167-.482 31.217-.704 36.316-2.645 9.381-3.571 12.934-8.782 12.934-18.966 0-8.146-3.113-13.971-9-16.841-4.358-2.124-5.826-2.209-46.5-2.696-23.1-.276-44.267-.137-47.039.309" fill="#1976D2" fill-rule="evenodd"/><path fill-opacity=".057" d="M113.955 1.044c-9.549 1.316-22.989 5.445-31.243 9.598-11.4 5.737-18.535 10.988-28.212 20.765l-9 9.093 45.5.556 45.5.555 8.978 2.756c12.339 3.788 17.821 6.967 26.096 15.133 5.541 5.467 8.061 8.981 11.51 16.046 4.563 9.346 5.164 10.909 5.18 13.454.005.825.314 1.95.686 2.5 1.177 1.737.237 23.687-1.114 26.018-.313.54-1.331 3.316-2.262 6.169-5.913 18.121-25.702 34.214-46.574 37.876-4.675.82-10.942 1.922-13.927 2.448-7.285 1.285-12.275 4.761-14.923 10.393-2.749 5.848-2.765 12.445-.044 17.886 1.321 2.643 13.128 15.281 31.727 33.96L171.455 256l19.023-.006c10.462-.003 20.71-.474 22.772-1.047 3.611-1.002 3.75-1.205 3.75-5.463 0-4.277-.405-4.855-12.404-17.703-6.822-7.304-17.397-18.223-23.5-24.264C174.993 201.476 170 196.25 170 195.902c0-.348 3.506-2.669 7.791-5.159 4.285-2.49 8.898-5.693 10.25-7.118 1.352-1.425 2.909-2.655 3.459-2.734.55-.08 4.375-3.719 8.5-8.088l7.5-7.945v-62.179c0-60.715-.047-62.235-2-64.572-6.619-7.917-10.963-12.656-11.913-12.994-.598-.213-2.537-1.813-4.31-3.556-7.416-7.293-26.057-15.809-41.426-18.925-9.679-1.962-25.725-2.714-33.896-1.588m-72.597 81.84c-8.585 2.238-12.677 7.317-14.408 17.884-.525 3.207-.941 38.66-.944 80.482L26 256h7.066C45.117 256 44 260.871 44 208.334v-45.596l8.25 8.424c4.538 4.632 9.712 9.447 11.5 10.699l3.25 2.275V121l3.75-.014c8.709-.031 8.25 1.026 8.25-18.994 0-17.602-.022-17.781-2.25-18.331-4.046-.998-32.172-1.616-35.392-.777" fill="#1976D2" fill-rule="evenodd"/><path fill-opacity=".216" d="M106.677 2.587C89.835 6.299 74.242 13.928 61.589 24.646 54.618 30.551 46.297 39.63 47.11 40.443c.242.242 21.803.662 47.915.933 26.111.272 48.464.572 49.673.668 1.208.096 2.394.913 2.634 1.815.24.903.474-7.359.52-18.359.092-21.769-.146-22.805-5.352-23.265-13.198-1.165-29.674-1.004-35.823.352M142 162.177c0 .408-1.238.737-2.75.731-7.179-.031-15.143 1.06-18.987 2.601-7.364 2.951-12.281 10.584-12.235 18.991.039 7.26 3.24 11.204 33.757 41.6l29.719 29.6 4.498-.6 4.498-.6.269-22.303c.298-24.672.736-22.743-7.045-31.061l-4.7-5.025-6.847 2.329c-5.919 2.013-17.494 4.418-14.677 3.049.642-.312.821-7.53.5-20.152l-.5-19.665-2.75-.119c-1.512-.066-2.75.215-2.75.624" fill="#1976D2" fill-rule="evenodd"/></svg>