<svg xmlns="http://www.w3.org/2000/svg" viewBox="0 0 28.45 43.52"><defs><style>.cls-1{fill:#f4764a;}</style></defs><g id="Layer_2" data-name="Layer 2"><g id="Layer_1-2" data-name="Layer 1"><path class="cls-1" d="M14.32,4.75c-3,0-6.1,4.74-6.45,5.29a.93.93,0,0,0,.29,1.28.91.91,0,0,0,.5.15A.93.93,0,0,0,9.44,11c1.18-1.83,3.47-4.42,4.88-4.42S18,9.2,19.18,11a.93.93,0,0,0,1.58-1c-.34-.54-3.43-5.29-6.44-5.29"/><path class="cls-1" d="M25,22.53a9.68,9.68,0,0,1-6.88,8.94V29.22A7.68,7.68,0,1,0,6.62,22.57a7.72,7.72,0,0,0,3.87,6.65v2.25a9.71,9.71,0,0,1-6.88-8.94V12.19a3.73,3.73,0,0,1,1.18-2.7l6.44-7.11a1.88,1.88,0,0,1,1.29-.52h3.59a1.86,1.86,0,0,1,1.24.47l6.54,7.21A3.68,3.68,0,0,1,25,12.19ZM16.28,34.29H12.35v-11a2,2,0,1,1,3.93,0Zm-2-14.81a3.83,3.83,0,0,0-3.83,3.83V27a5.83,5.83,0,1,1,9.65-4.39,5.77,5.77,0,0,1-2,4.39V23.31a3.83,3.83,0,0,0-3.82-3.83m13.2-4.6a1,1,0,0,0-.64.25V12.19a5.49,5.49,0,0,0-1.66-3.95L18.68,1a3.69,3.69,0,0,0-2.57-1H12.52A3.73,3.73,0,0,0,9.9,1.08L3.46,8.19a5.54,5.54,0,0,0-1.71,4v3.2a.93.93,0,0,0-.82-.51.93.93,0,0,0-.93.93V22.2a.94.94,0,0,0,.93.94.93.93,0,0,0,.82-.52c0,4.94,3.6,9.3,8.74,10.8v2.73h2.89v6.44a.94.94,0,0,0,1.87,0V36.15h2.89V33.42a11.62,11.62,0,0,0,8.73-10.55.92.92,0,0,0,.65.27.94.94,0,0,0,.93-.94V15.81a.93.93,0,0,0-.93-.93"/></g></g></svg>