<svg xmlns="http://www.w3.org/2000/svg" viewBox="0 0 49.17 39.37"><defs><style>.cls-1{fill:#f4764a;}</style></defs><g id="Layer_2" data-name="Layer 2"><g id="Layer_1-2" data-name="Layer 1"><path class="cls-1" d="M41.33,33.74a18.76,18.76,0,0,0-6.4-11.6,1,1,0,0,0-1.35.15,1,1,0,0,0,.15,1.34,16.93,16.93,0,0,1,5.85,11.26s0,0,0,.08A16.11,16.11,0,0,1,31,37.46H29.78c-1.07-1.48-2-6.16-1.79-8.23a1,1,0,0,0-1.9-.22,20.46,20.46,0,0,0,1.53,8.45h-7a18,18,0,0,1-.16-15.24s0,0,0-.08C28.5,22,32,19.94,32,15.36V12.42c8.44-1.08,14.13,2.69,15.14,4.11,0,.06.11.09.16.14V21.2c0,.19,0,.38,0,.57a22,22,0,0,0-8.58-5.41,1,1,0,0,0-.56,1.82A20.6,20.6,0,0,1,47,24.27a16.24,16.24,0,0,1-5.62,9.47M10.44,35.61V24a1.85,1.85,0,0,1,1.85-1.85h6.14a20,20,0,0,0,.11,15.3H12.29a1.85,1.85,0,0,1-1.85-1.85M47.25,10.8v3.25C44.55,12,38.94,9.68,32,10.49A2.13,2.13,0,0,1,34.09,8.4H44.86a2.4,2.4,0,0,1,2.39,2.4m-.88-4V1a1,1,0,1,0-1.91,0V6.49H34.38V1a1,1,0,0,0-1.92,0V6.83A4.06,4.06,0,0,0,30,10.54v4.82c0,1.7,0,4.88-10.51,4.88H12.29a3.76,3.76,0,0,0-3.68,3,9,9,0,0,0-2.85.51A1,1,0,0,0,5.17,25a1,1,0,0,0,.9.65,1.19,1.19,0,0,0,.32-.05,6.77,6.77,0,0,1,2.14-.4V35.22c-2.92-.06-6.62-2.47-6.62-5a4.11,4.11,0,0,1,1.4-2.8.94.94,0,0,0,0-1.35A1,1,0,0,0,2,26a5.84,5.84,0,0,0-2,4.18c0,3.85,4.73,7,8.64,7a.71.71,0,0,0,.2,0,3.78,3.78,0,0,0,3.45,2.27H31A18.19,18.19,0,0,0,49.17,21.2V10.8a4.3,4.3,0,0,0-2.8-4"/></g></g></svg>