<svg xmlns="http://www.w3.org/2000/svg" viewBox="0 0 48.51 41.31"><defs><style>.cls-1{fill:#f4764a;}</style></defs><g id="Layer_2" data-name="Layer 2"><g id="Layer_1-2" data-name="Layer 1"><path class="cls-1" d="M35.86,39.61c-5.46-.38-7.8-4.12-10-7.74-.43-.69-.85-1.35-1.28-2-3.29-4.83-6.58-5.95-15.6-8.47-3.18-.89-4.79-1.58-6.09-5.48a15.58,15.58,0,0,0,6.91,3.27c.72.16,1.44.31,2.17.45,2.76.56,5.38,1.08,7.51,2.59a19,19,0,0,1,4.65,5.59,39.51,39.51,0,0,0,2.39,3.46,15.47,15.47,0,0,0,10.29,5.95,10,10,0,0,0,1.09.06,11.64,11.64,0,0,0,6.44-2,8.71,8.71,0,0,1-8.43,4.26M3.58,6.56c3.9-4.74,11.48-5,14.56-4.86,10.2.38,21.46,7.06,26.21,15.54A17.65,17.65,0,0,1,46.14,31a.87.87,0,0,0-.23.27,8.36,8.36,0,0,1-3.65,3.35c-1.13-9.06-6.17-20.35-23.41-24.25A13.1,13.1,0,0,0,6.44,13.88.84.84,0,1,0,7.69,15a11.41,11.41,0,0,1,10.79-3C31.8,15,39.25,22.82,40.64,35.23a10.07,10.07,0,0,1-3.72.36,13.81,13.81,0,0,1-9.14-5.34,38,38,0,0,1-2.28-3.31,20.61,20.61,0,0,0-5.1-6.06C18,19.17,15.06,18.58,12.25,18c-.71-.15-1.42-.29-2.12-.45-2-.45-8.37-2.31-8.25-7.29a.73.73,0,0,0-.08-.36A8.6,8.6,0,0,1,3.58,6.56m42.23,9.86c-5-9-16.87-16-27.6-16.4C14.87-.11,6.66.18,2.29,5.5,1,7.05-.41,9.45.11,12h0c1.62,8,3.33,9.61,8.36,11,9.37,2.62,11.85,3.66,14.68,7.81.41.6.82,1.25,1.23,1.92,2.25,3.6,5.05,8.09,11.36,8.52.29,0,.57,0,.86,0a10.27,10.27,0,0,0,9.19-5.19,19.25,19.25,0,0,0,0-19.7"/></g></g></svg>