<svg xmlns="http://www.w3.org/2000/svg" viewBox="0 0 27.7 42.35"><defs><style>.cls-1{fill:#f4764a;}</style></defs><g id="Layer_2" data-name="Layer 2"><g id="Layer_1-2" data-name="Layer 1"><path class="cls-1" d="M12.73,36.47a1.17,1.17,0,0,0-.67-.22,1.14,1.14,0,0,0-.89.43L8.78,39.83a.77.77,0,0,1-.61.3h-.1a.74.74,0,0,1-.55-.36.71.71,0,0,1,0-.65l6-15.86L2.88,21.91a.71.71,0,0,1-.53-.32A.73.73,0,0,1,2.24,21l3.9-14.7a1.13,1.13,0,0,0-.79-1.36,1.33,1.33,0,0,0-.28,0A1.1,1.1,0,0,0,4,5.7L.1,20.4a3,3,0,0,0,2.5,3.71l7.76,1-5,13.23a3,3,0,0,0,.24,2.58A2.94,2.94,0,0,0,7.8,42.32a2.22,2.22,0,0,0,.37,0,3,3,0,0,0,2.37-1.18L12.94,38a1.1,1.1,0,0,0,.21-.82,1.12,1.12,0,0,0-.42-.74"/><path class="cls-1" d="M27.47,16.52a2.94,2.94,0,0,0-2.37-1.81l-7.38-.94,3.93-8.25h0a3,3,0,0,0-.19-2.63,2.93,2.93,0,0,0-2.19-1.44L8.17,0,7.8,0A3,3,0,0,0,4.92,2.21a1.1,1.1,0,0,0,.79,1.35A.86.86,0,0,0,6,3.6a1.11,1.11,0,0,0,1.07-.82.76.76,0,0,1,.74-.56h.09L19,3.63a.77.77,0,0,1,.63,1l-5.21,11,10.42,1.32a.77.77,0,0,1,.6.46.75.75,0,0,1-.1.75L13,34.26a1.1,1.1,0,0,0-.21.82,1.1,1.1,0,0,0,1.09,1,1.09,1.09,0,0,0,.88-.44L27.09,19.47a3,3,0,0,0,.38-2.95"/></g></g></svg>