<svg xmlns="http://www.w3.org/2000/svg" viewBox="0 0 39.91 47.69"><defs><style>.cls-1{fill:#f47e51;}</style></defs><g id="Layer_2" data-name="Layer 2"><g id="Layer_1-2" data-name="Layer 1"><path class="cls-1" d="M28.74,43.79a6,6,0,0,1-8.5,0L3.91,27.46a6,6,0,0,1,0-8.5L19,3.91a6,6,0,0,1,8.5,0l5.71,5.71a10.76,10.76,0,0,1-.1,4.47L27.62,8.64a6,6,0,0,0-8.44,0L8.64,19.18a6,6,0,0,0,0,8.44L20.07,39.05a6,6,0,0,0,8.45,0l6.38-6.38a10.8,10.8,0,0,1-3.06,8,1.63,1.63,0,0,0-.17.22Zm2.52-25.3c-1.56,2.49.31,5.5.42,5.67h0a1.09,1.09,0,0,0-.27.7A1.13,1.13,0,0,0,32.55,26a.94.94,0,0,0,.28-.06,16.52,16.52,0,0,1,1.73,4.22l-7.47,7.47a4,4,0,0,1-5.59,0L10.07,26.2a4,4,0,0,1,0-5.6L20.61,10.07a3.95,3.95,0,0,1,5.59,0l6.19,6.19a16,16,0,0,1-1.13,2.23m5.78,14A17.42,17.42,0,0,0,33.47,23s-1.21-2-.39-3.35a16.46,16.46,0,0,0,2.28-6.12c1.27,3.82,3.49,12.07,1.68,19m-.47-21.91-.41-1L29,2.39a8.16,8.16,0,0,0-11.54,0l-15,15.05A8.16,8.16,0,0,0,2.39,29L18.72,45.31a8.18,8.18,0,0,0,11.54,0l4.63-4.63a10.57,10.57,0,0,0,1.21-1.45l.35-.49c7.55-10.18.43-27.47.12-28.2"/><path class="cls-1" d="M15.15,21.7a1.13,1.13,0,1,0,1.13,1.13,1.12,1.12,0,0,0-1.13-1.13"/><path class="cls-1" d="M21,19.87A1.13,1.13,0,1,0,22.13,21,1.14,1.14,0,0,0,21,19.87"/><path class="cls-1" d="M22.83,14A1.13,1.13,0,1,0,24,15.15,1.13,1.13,0,0,0,22.83,14"/><path class="cls-1" d="M20,26.56a1.13,1.13,0,1,0,1.13,1.13A1.12,1.12,0,0,0,20,26.56"/><path class="cls-1" d="M25.4,26.53a1.13,1.13,0,1,0,1.13-1.13,1.14,1.14,0,0,0-1.13,1.13"/><path class="cls-1" d="M27.69,21.14A1.13,1.13,0,1,0,26.56,20a1.13,1.13,0,0,0,1.13,1.13"/><path class="cls-1" d="M24.87,31.42A1.13,1.13,0,1,0,26,32.55a1.12,1.12,0,0,0-1.13-1.13"/></g></g></svg>