<svg xmlns="http://www.w3.org/2000/svg" viewBox="0 0 37.65 49.92"><defs><style>.cls-1{fill:#f4764a;}</style></defs><g id="Layer_2" data-name="Layer 2"><g id="Layer_1-2" data-name="Layer 1"><path class="cls-1" d="M18.83,48C11.2,48,1.88,40.33,1.88,31.32c0-12.13,13.49-25.79,17-29.1,3.46,3.31,17,17,17,29.1,0,9-9.32,16.72-17,16.72M19.46.25a.94.94,0,0,0-1.27,0C15.15,3,0,17.68,0,31.32c0,10,10.35,18.6,18.83,18.6s18.82-8.58,18.82-18.6C37.65,17.69,22.5,3,19.46.25"/><path class="cls-1" d="M18.13,40.59A10.14,10.14,0,0,1,8,30.45a.94.94,0,0,0-1.88,0,12,12,0,0,0,12,12,.94.94,0,0,0,0-1.88"/></g></g></svg>