<svg xmlns="http://www.w3.org/2000/svg" viewBox="0 0 30.19 43.63"><defs><style>.cls-1{fill:#f4764a;}</style></defs><g id="Layer_2" data-name="Layer 2"><g id="Layer_1-2" data-name="Layer 1"><path class="cls-1" d="M14.79,0A14.79,14.79,0,0,0,1.27,20.79,1,1,0,0,0,3.13,20,12.56,12.56,0,0,1,2,14.79,12.76,12.76,0,0,1,14.79,2c7,0,13.36,6.43,13.36,13.49,0,3.5-1.34,5.18-2.9,7.13a14.12,14.12,0,0,0-3.77,9.75C21.41,37.9,17.6,41.6,12,41.6c-4.34,0-7-3.2-7-8.36a1,1,0,0,0-2,0c0,6.32,3.57,10.39,9.08,10.39,6.69,0,11.43-4.6,11.52-11.19.06-4.43,1.64-6.41,3.32-8.51s3.35-4.19,3.35-8.4C30.19,7.26,23,0,14.79,0"/><path class="cls-1" d="M5.94,19.24a1,1,0,0,0,1,.88H7A1,1,0,0,0,7.89,19a16.59,16.59,0,0,1,0-3.65c3.74-1.67,7.09-1.52,9,.44a5.36,5.36,0,0,1,.69,6.25,5.15,5.15,0,0,1-1.65,1.67,6,6,0,0,0-2.19,2.45,4.39,4.39,0,0,0,0,3.15,5.29,5.29,0,0,0,1.08,1.58,5.16,5.16,0,0,1,.68.9,1.93,1.93,0,0,1-.09,1.58,2,2,0,0,1-1,1,3.82,3.82,0,0,1-3.29-.73,2.11,2.11,0,0,1-.72-2,1,1,0,1,0-2-.28A4.15,4.15,0,0,0,9.8,35.22a5.81,5.81,0,0,0,3.75,1.34,5.2,5.2,0,0,0,1.43-.2,4.1,4.1,0,0,0,2.42-5.29,5.24,5.24,0,0,0-1-1.48,5.06,5.06,0,0,1-.69-.93A2.5,2.5,0,0,1,15.6,27a4.34,4.34,0,0,1,1.54-1.61A6.83,6.83,0,0,0,19.37,23a7.34,7.34,0,0,0-1-8.59c-2.27-2.32-5.86-2.83-9.84-1.47a5.6,5.6,0,0,1,.92-1.45c1.2-1.34,3.07-2,5.73-2,3.89,0,7,2.86,7,6.37a1,1,0,1,0,2,0c0-4.59-4-8.33-9-8.33-3.25,0-5.6.86-7.19,2.64a8.43,8.43,0,0,0-1.89,4.05,1,1,0,0,0-.09.55,17.9,17.9,0,0,0,0,4.47"/></g></g></svg>