<svg xmlns="http://www.w3.org/2000/svg" viewBox="0 0 48.04 35.88"><defs><style>.cls-1{fill:#f4764a;}</style></defs><g id="Layer_2" data-name="Layer 2"><g id="Layer_1-2" data-name="Layer 1"><path class="cls-1" d="M2.21,17.94c.2.38.63,1.16,1.37,2.3a38.6,38.6,0,0,0,4.29,5.51c5,5.29,10.39,8,16.15,8s11.19-2.68,16.15-8a39.17,39.17,0,0,0,4.29-5.51c.72-1.11,1.15-1.88,1.37-2.3-.22-.42-.65-1.18-1.37-2.3a38.6,38.6,0,0,0-4.29-5.51c-5-5.29-10.39-8-16.15-8s-11.19,2.68-16.15,8a38.6,38.6,0,0,0-4.29,5.51c-.72,1.12-1.15,1.88-1.37,2.3M24,35.88c-6.38,0-12.34-2.91-17.73-8.65a42.26,42.26,0,0,1-4.53-5.82C.85,20,.35,19.05.18,18.71a1.74,1.74,0,0,1,0-1.54c.17-.33.65-1.25,1.58-2.7A41.5,41.5,0,0,1,6.29,8.65C11.68,2.91,17.64,0,24,0S36.36,2.91,41.75,8.65a41.83,41.83,0,0,1,4.53,5.82,30.7,30.7,0,0,1,1.58,2.7,1.74,1.74,0,0,1,0,1.54,30.35,30.35,0,0,1-1.58,2.7,42.26,42.26,0,0,1-4.53,5.82C36.36,33,30.4,35.88,24,35.88"/><path class="cls-1" d="M17.78,18.28a6.25,6.25,0,1,0,6.3-6.59c-.21,0-.42,0-.62,0a5.39,5.39,0,0,1,.06.8,5.74,5.74,0,0,1-5.71,5.76ZM24,26.35a8.42,8.42,0,0,1-8.41-8.41,7.08,7.08,0,0,1,.07-1l.14-1.18L17,16a4.13,4.13,0,0,0,.78.08,3.64,3.64,0,0,0,3.6-3.59,3.53,3.53,0,0,0-.24-1.27l-.42-1.11,1.15-.31A8.22,8.22,0,0,1,24,9.53a8.41,8.41,0,0,1,0,16.82"/></g></g></svg>