<svg xmlns="http://www.w3.org/2000/svg" viewBox="0 0 22.11 49.92"><defs><style>.cls-1{fill:#f4764a;}</style></defs><g id="Layer_2" data-name="Layer 2"><g id="Layer_1-2" data-name="Layer 1"><path class="cls-1" d="M18.83,29.33l-1.39.58c-.18.07-.52.21-.72.27a2,2,0,0,0-.35,0h-5.3a1.84,1.84,0,0,0-.33,0c-.25-.08-.49-.17-.74-.27l-1.39-.58A2.52,2.52,0,0,1,7.05,27v-.65a4.38,4.38,0,0,0,.9.51l1.39.58a11.42,11.42,0,0,0,4.39.87,10.14,10.14,0,0,0,1.34-.08.86.86,0,1,0-.21-1.7A9.74,9.74,0,0,1,10,25.84l-1.39-.58a2.52,2.52,0,0,1-1.56-2.34V8.28A3.26,3.26,0,0,1,10.3,5h6.84A3.26,3.26,0,0,1,20.4,8.28V22.92a2.53,2.53,0,0,1-1.57,2.34.88.88,0,0,0-.46,1.13.87.87,0,0,0,.79.53.93.93,0,0,0,.33-.07,4.74,4.74,0,0,0,.91-.51V27a2.53,2.53,0,0,1-1.57,2.34m-2.38,4.05a.07.07,0,0,1-.08.08h-5.3a.08.08,0,0,1-.08-.08V32a.08.08,0,0,1,.08-.08h5.3a.07.07,0,0,1,.08.08ZM12.88,3.28l0-1.56,1.65,0V3.28s0,0,0,0H12.88v0m4.26,0h-.86V1.75A1.75,1.75,0,0,0,14.53,0H12.91a1.74,1.74,0,0,0-1.74,1.75V3.31H10.3a5,5,0,0,0-5,5V27A4.26,4.26,0,0,0,8,30.92l1.39.57a1.76,1.76,0,0,0-.06.46v1.43a1.8,1.8,0,0,0,1.79,1.8h1.79V45.84a2.36,2.36,0,1,1-4.71,0v-1A4.08,4.08,0,0,0,0,44.8a.87.87,0,0,0,.86.86.87.87,0,0,0,.86-.86,2.36,2.36,0,1,1,4.71,0v1a4.08,4.08,0,1,0,8.15,0V35.18h1.79a1.81,1.81,0,0,0,1.8-1.8V32a1.76,1.76,0,0,0-.06-.46l1.38-.57A4.26,4.26,0,0,0,22.11,27V8.28a5,5,0,0,0-5-5"/></g></g></svg>