<svg xmlns="http://www.w3.org/2000/svg" viewBox="0 0 47.72 43.35"><defs><style>.cls-1{fill:#f4764a;}</style></defs><g id="Layer_2" data-name="Layer 2"><g id="Layer_1-2" data-name="Layer 1"><path class="cls-1" d="M29,24.58,16.11,36l-4.58-5.17a1,1,0,1,0-1.47,1.3l5.54,6.25a.31.31,0,0,1,.08.21.32.32,0,0,1-.1.2l-.77.69a.29.29,0,0,1-.41,0l-9.74-11a.3.3,0,0,1,0-.41l.77-.68a.25.25,0,0,1,.21-.07.28.28,0,0,1,.2.09L8,29.73a1,1,0,0,0,1.46-1.3L8.3,27.16,11.88,24l2.9,3.27a1,1,0,0,0,.73.33,1,1,0,0,0,.65-.24A1,1,0,0,0,16.24,26l-2.9-3.27L15.23,21l2.9,3.27a1,1,0,0,0,.74.33,1,1,0,0,0,.64-.24A1,1,0,0,0,19.6,23l-2.9-3.27,1.89-1.67,2.9,3.27a1,1,0,0,0,1.38.08A1,1,0,0,0,23,20l-2.9-3.27,1.12-1a3.17,3.17,0,0,1,4.47.27l3.61,4.08A3.17,3.17,0,0,1,29,24.58m-.28-9.42,1.78,2-.68.6-1.78-2ZM47.47.33A1,1,0,0,0,46.09.25L30.41,14.14l-.9-1a1,1,0,0,0-1.38-.08l-1.45,1.29a5.12,5.12,0,0,0-6.81,0L18,15.93h0l-3.35,3h0l-3.36,3h0L7,25.74a2.23,2.23,0,0,0-2.79.14l-.77.69a2.25,2.25,0,0,0-.19,3.17L7.42,34.5,4.61,37l-2.9-3.28A1,1,0,0,0,.25,35l7.09,8a1,1,0,0,0,.74.33,1,1,0,0,0,.65-.24,1,1,0,0,0,.08-1.38l-2.9-3.28L8.71,36l4.22,4.76a2.27,2.27,0,0,0,1.69.76,2.2,2.2,0,0,0,1.48-.57l.78-.68a2.25,2.25,0,0,0,.75-1.55,2.17,2.17,0,0,0-.27-1.2L30.28,26.05a5.14,5.14,0,0,0,.79-6.78L32.51,18a1,1,0,0,0,.33-.67,1,1,0,0,0-.24-.71l-.9-1L47.39,1.71A1,1,0,0,0,47.47.33"/></g></g></svg>