<svg xmlns="http://www.w3.org/2000/svg" viewBox="0 0 39.25 48.37"><defs><style>.cls-1{fill:#f4764a;}</style></defs><g id="Layer_2" data-name="Layer 2"><g id="Layer_1-2" data-name="Layer 1"><path class="cls-1" d="M2,11.13A9.14,9.14,0,0,1,11,2h.05A9.13,9.13,0,0,1,20.2,11l.08,11.57L2,22.7ZM15.43,44.28a9,9,0,0,1-4.15,1h0a9.14,9.14,0,0,1-9.12-9.07L2,24.66l19-.11a.71.71,0,0,0,.25.06,1,1,0,0,0,1-1L22.16,11A11.09,11.09,0,0,0,11.08,0H11A11.1,11.1,0,0,0,0,11.15L.15,36.24a11.1,11.1,0,0,0,11.08,11h.07a11,11,0,0,0,5-1.24,1,1,0,1,0-.9-1.74"/><path class="cls-1" d="M14.26,6A1,1,0,0,0,13,7.48a7.39,7.39,0,0,1,2.74,5.7l0,5.34a1,1,0,0,0,1,1h0a1,1,0,0,0,1-1l0-5.34A9.38,9.38,0,0,0,14.26,6"/><path class="cls-1" d="M27.52,46.41a9.76,9.76,0,1,1,9.77-9.76,9.77,9.77,0,0,1-9.77,9.76m0-21.48A11.72,11.72,0,1,0,39.25,36.65,11.73,11.73,0,0,0,27.52,24.93"/><path class="cls-1" d="M32.08,30.71,21.59,41.2A1,1,0,1,0,23,42.59L33.46,32.1a1,1,0,0,0-1.38-1.39"/></g></g></svg>