<svg xmlns="http://www.w3.org/2000/svg" viewBox="0 0 28.77 49.85"><defs><style>.cls-1{fill:#f4764a;}</style></defs><g id="Layer_2" data-name="Layer 2"><g id="Layer_1-2" data-name="Layer 1"><path class="cls-1" d="M14.39,7.25c-2.84,0-4.42-.69-4.73-1,.31-.35,1.89-1,4.73-1s4.41.7,4.72,1c-.31.36-1.89,1-4.72,1m0-3.81c-3.22,0-6.47.86-6.47,2.76S11.17,9,14.39,9s6.46-.85,6.46-2.76S17.6,3.44,14.39,3.44"/><path class="cls-1" d="M27.05,37.46c0,2.08-5,4.4-12.25,4.48l1.92-3.2a.87.87,0,0,0,0-.88L13.77,33l2.95-4.91a.87.87,0,0,0,0-.88l-3-5,1.5-5a.86.86,0,0,0-.55-1.06,28.21,28.21,0,0,1-8.88-4.87,29.36,29.36,0,0,0,8.61,1.19c1.15,0,2.3-.06,3.41-.17a.85.85,0,0,0,.77-.93.86.86,0,0,0-.94-.77,31.24,31.24,0,0,1-3.24.16c-6.18,0-10.49-1.6-12-3.19a2,2,0,0,1-.64-1.3c0-2.13,5.21-4.5,12.67-4.5s12.67,2.37,12.67,4.5c0,1.16-1.63,2.42-4.26,3.29a.85.85,0,1,0,.53,1.62,11.84,11.84,0,0,0,3.74-1.9V37.4s0,0,0,.06M1.71,37.23V9.54c2.44,3.13,7,6.22,11.62,7.91L12,22a.88.88,0,0,0,.08.69l3,4.91-3,4.91a.87.87,0,0,0,0,.88l3,4.9-3,4.91a.87.87,0,0,0-.08.69l1.11,3.69C7.14,45.09,2.52,40,1.71,37.23m27.05-31C28.74,2.66,22.57,0,14.38,0S0,2.67,0,6.21V37.34a.78.78,0,0,0,0,.22c1,3.93,7.26,10,14.09,12.25a.75.75,0,0,0,.26,0,.85.85,0,0,0,.6-.24.86.86,0,0,0,.22-.86l-1.5-5,.18-.29a.8.8,0,0,0,.5.18c8.15,0,14.31-2.63,14.38-6.14a.13.13,0,0,0,0-.06V6.2a0,0,0,0,1,0,0"/></g></g></svg>