<svg xmlns="http://www.w3.org/2000/svg" viewBox="0 0 46.47 49.92"><defs><style>.cls-1{fill:#f4764a;}</style></defs><g id="Layer_2" data-name="Layer 2"><g id="Layer_1-2" data-name="Layer 1"><path class="cls-1" d="M22.22,5.44c1.41-2.82,4.32-4.23,6.51-3.13a3.92,3.92,0,0,1,2,2.79,6.56,6.56,0,0,1-.62,4.3c-1.42,2.82-4.34,4.23-6.52,3.13s-2.8-4.27-1.38-7.09M16.71,31l8.58-16.13a7.84,7.84,0,0,0,6.56-4.56,8.52,8.52,0,0,0,.79-5.58,5.83,5.83,0,0,0-3-4.12c-3.14-1.57-7.23.22-9.12,4s-.88,8.13,2.25,9.7c.18.09.35.16.53.23L13.43,33,.4,42.53a1,1,0,0,0-.21,1.36,1,1,0,0,0,.78.39,1,1,0,0,0,.57-.18l9.8-7.17L5.19,48.49a1,1,0,0,0,.4,1.31,1,1,0,0,0,.46.12,1,1,0,0,0,.86-.52l8-15.1,2.18-1.6a1,1,0,0,0,.21-1.36,1,1,0,0,0-.62-.38"/><path class="cls-1" d="M41.73,21.11a6.52,6.52,0,0,1-4.16,1.23,4,4,0,0,1-3.06-1.59c-1.39-2-.41-5.09,2.18-6.89a6.59,6.59,0,0,1,3.77-1.25h.39a4,4,0,0,1,3.06,1.6c1.39,2,.41,5.09-2.18,6.89m3.77-8A5.84,5.84,0,0,0,41,10.68a8.48,8.48,0,0,0-5.41,1.58A7.82,7.82,0,0,0,32,19.41L19.24,28.74a1,1,0,0,0,.57,1.76.93.93,0,0,0,.57-.19l12.24-8.95a5.09,5.09,0,0,0,.3.5,5.8,5.8,0,0,0,4.51,2.42l.53,0a8.67,8.67,0,0,0,4.88-1.59c3.47-2.42,4.66-6.72,2.66-9.6"/></g></g></svg>