<svg xmlns="http://www.w3.org/2000/svg" viewBox="0 0 41.75 48.21"><defs><style>.cls-1{fill:#f4764a;}</style></defs><g id="Layer_2" data-name="Layer 2"><g id="Layer_1-2" data-name="Layer 1"><path class="cls-1" d="M41.6.61A1.18,1.18,0,0,0,40,.15a79.91,79.91,0,0,0-8.7,5.6c-.35-.17-.71-.33-1.1-.48-5.78-2.1-9.5.68-10.66,2.45a1.18,1.18,0,0,0,2,1.3c.1-.14,2.47-3.49,7.88-1.52,5.09,1.85,4,7.17,3.95,7.4a1.19,1.19,0,0,0,.9,1.41,1.09,1.09,0,0,0,.26,0,1.18,1.18,0,0,0,1.15-.93A9,9,0,0,0,33.33,7.2a77.44,77.44,0,0,1,7.81-5A1.19,1.19,0,0,0,41.6.61"/><path class="cls-1" d="M27.73,8.52a85.76,85.76,0,0,0-8.67,8.21c-5.69-2-9.36.74-10.51,2.49a1.18,1.18,0,0,0,.33,1.63,1.2,1.2,0,0,0,1.64-.32c.1-.15,2.47-3.5,7.87-1.53,5.1,1.86,4,7.18,4,7.4a1.17,1.17,0,0,0,.89,1.41l.26,0a1.19,1.19,0,0,0,1.16-.92c.5-2.24.27-6.6-3.39-9.09a84.82,84.82,0,0,1,8-7.49,1.18,1.18,0,0,0-1.5-1.82"/><path class="cls-1" d="M15.68,20.57c-2,2.42-3.92,5-5.72,7.67C4.7,26.72,1.29,29.3.19,31a1.19,1.19,0,0,0,2,1.31c.1-.15,2.46-3.5,7.87-1.53,5.09,1.86,4,7.18,4,7.4a1.18,1.18,0,0,0,.9,1.41,1.15,1.15,0,0,0,.26,0,1.17,1.17,0,0,0,1.15-.92c.54-2.38.25-7.14-4.1-9.52,1.68-2.46,3.46-4.84,5.31-7.07a1.19,1.19,0,0,0-1.83-1.51"/><path class="cls-1" d="M9.1,31.71a1.18,1.18,0,0,0-1.63.39A106,106,0,0,0,.09,46.57a1.19,1.19,0,0,0,.64,1.55,1.2,1.2,0,0,0,.45.09,1.18,1.18,0,0,0,1.1-.73A102.26,102.26,0,0,1,9.49,33.34a1.18,1.18,0,0,0-.39-1.63"/></g></g></svg>