<svg xmlns="http://www.w3.org/2000/svg" viewBox="0 0 49.96 48.65"><defs><style>.cls-1{fill:#f4764a;}</style></defs><g id="Layer_2" data-name="Layer 2"><g id="Layer_1-2" data-name="Layer 1"><path class="cls-1" d="M47.7,25.35a1.93,1.93,0,0,1-1,.91L36.44,30.34l-.13.06a1.4,1.4,0,0,1-1.37.06,1.34,1.34,0,0,1-.69-.89,1.82,1.82,0,0,1,.17-1.34,1.85,1.85,0,0,1,1.23-1l11.77-3,.21,0a1.09,1.09,0,0,1,.07,1.17m-3-3.08v.31a.7.7,0,0,0,0,.14l-9.32,2.41V24.5ZM2.3,2.43a.82.82,0,0,1,.64-.31h12a.82.82,0,0,1,.78.6L19,13.51l-13.53,2L2.15,3.13a.82.82,0,0,1,.15-.7M48.4,22.12a1.07,1.07,0,0,0-.66-.1l-.7.1-.1,0-.12,0v-.86a1.05,1.05,0,0,0,.13-.49,4.28,4.28,0,0,0-3.66-4.21L21.17,13.49,17.76,2.12A3,3,0,0,0,14.94,0h-12A2.92,2.92,0,0,0,.63,1.12,3,3,0,0,0,.08,3.65L3.66,17.17v2.25a1.07,1.07,0,0,0,.39.8V37.84a1.06,1.06,0,0,0,2.12,0V20.7l8.51,1.22V36.3a1.07,1.07,0,0,0,2.13,0V22.22l4.86.7h.16A1.06,1.06,0,0,0,22,20.82L5.79,18.5v-.86L20.1,15.49,43,18.73a2.14,2.14,0,0,1,1.69,1.36L34.29,22.58l-7.32-1a1.06,1.06,0,0,0-1.2.9,1.08,1.08,0,0,0,.9,1.21l6.61.94v1.68a4.1,4.1,0,0,0-.75,1,4,4,0,0,0-.34,2.87,3.59,3.59,0,0,0,1.09,1.76V47.59a1.07,1.07,0,0,0,2.13,0V32.72l.14,0a3.64,3.64,0,0,0,1.74-.45l7.41-2.95V44.86a1.06,1.06,0,0,0,2.12,0V28.5l.65-.26a4.06,4.06,0,0,0,2.11-1.91,3.11,3.11,0,0,0-1.18-4.21"/></g></g></svg>