<svg xmlns="http://www.w3.org/2000/svg" xmlns:xlink="http://www.w3.org/1999/xlink" width="347" height="138.015" viewBox="0 0 347 138.015"><defs><style>.a{fill:url(#a);}.b{fill:url(#c);}.c{fill:#f7f7f7;}</style><linearGradient id="a" y1="0.5" x2="1" y2="0.5" gradientUnits="objectBoundingBox"><stop offset="0" stop-color="#4c5a85"/><stop offset="1" stop-color="#72c6ef"/></linearGradient><linearGradient id="c" y1="0.5" x2="1" y2="0.5" gradientUnits="objectBoundingBox"><stop offset="0" stop-color="#f47d50"/><stop offset="1" stop-color="#ffc956"/></linearGradient></defs><g transform="translate(-51.236 -50.088)"><g transform="translate(51.236 50.088)"><path class="a" d="M223.634,353.887c11.039,10.991,21.813,21.723,32.571,32.433H224.52c-9.357-9.25-18.612-18.612-27.964-27.868,1.433.111,2.871.17,4.331.17a54.823,54.823,0,0,0,22.635-4.843Z" transform="translate(-146.086 -248.305)"/><path class="a" d="M181.247,105.209a54.977,54.977,0,0,1-14.282,37.05l-.011.01c-.016.016-.032.037-.048.053a64.358,64.358,0,0,1-13.077,10.439c-1.077.658-2.171,1.279-3.354,1.953h-.005a54.858,54.858,0,0,1-24.419,5.689c-1.46,0-2.9-.058-4.331-.17h-.005c-.467-.467-.929-.923-1.4-1.385-3.869-3.821-6.384-7.956-4.368-13.539,2.017-5.6,6.539-7.037,12.016-7.5,16-1.343,28.07-12.021,30.724-26.77,2.574-14.313-4.468-29.153-17.715-35.113a44.4,44.4,0,0,0-17.387-3.678q-20.841-.159-41.688-.17a55.086,55.086,0,0,1,41.317-21.993h.027c.8,0,1.592.01,2.388.016a59.68,59.68,0,0,1,22.142,4.352.32.32,0,0,1,.074.032A55.2,55.2,0,0,1,181.247,105.209Z" transform="translate(-71.251 -50.088)"/><g transform="translate(0 43.9)"><path class="b" d="M73.361,265.827v38.4H51.24v-1.152q0-37.535.006-75.071a55.164,55.164,0,0,0,22.094,37.8C73.345,265.817,73.355,265.822,73.361,265.827Z" transform="translate(-51.236 -210.116)"/><path class="b" d="M115,193.741c-1.868,2.637-6.459,4.421-9.973,4.623-10.253.589-20.566.207-31.652.207V232.2c-.005-.005-.016-.011-.021-.016a55.164,55.164,0,0,1-22.094-37.8v-3.837c.005-10.169,3.768-14,13.862-14.032,13.528-.043,27.056-.016,40.585.01,4.7.011,9.081,1.725,10.307,6.279C116.939,186.221,116.87,191.1,115,193.741Z" transform="translate(-51.253 -176.491)"/></g></g><g transform="translate(175.612 174.482)"><path class="c" d="M421.669,411v12.51h-1.024V413.471l-4.888,7.692h-.493l-4.871-7.64v9.986h-1.041V411h.6l5.576,8.787L421.087,411Z" transform="translate(-409.353 -410.048)"/><path class="c" d="M461.165,424.436h-8.558a3.792,3.792,0,0,0,3.988,3.67,4.165,4.165,0,0,0,3.476-1.517l.723.583a4.951,4.951,0,0,1-4.252,1.852,4.9,4.9,0,0,1-.16-9.793c3.017,0,4.782,2.046,4.782,4.922Zm-8.541-.864h7.517a3.506,3.506,0,0,0-3.74-3.424A3.7,3.7,0,0,0,452.624,423.572Z" transform="translate(-436.929 -415.421)"/><path class="c" d="M483.526,417.219a4.514,4.514,0,0,1,4.728-4.852,4.669,4.669,0,0,1,3.494,1.394v-5.047h.954v13.3h-.954v-1.306a4.477,4.477,0,0,1-3.458,1.447C485.414,422.16,483.526,420.255,483.526,417.219Zm8.221,2.311v-4.552a4.128,4.128,0,0,0-3.4-1.675,3.963,3.963,0,0,0,.035,7.922A3.99,3.99,0,0,0,491.747,419.53Z" transform="translate(-457.765 -408.556)"/><path class="c" d="M517.326,411.678a.832.832,0,0,1,.847-.83.818.818,0,0,1,.83.83.829.829,0,0,1-.83.828A.843.843,0,0,1,517.326,411.678Zm.335,2.24h.988v9.493h-.988Z" transform="translate(-479.826 -409.948)"/><path class="c" d="M527.7,424.12a4.744,4.744,0,0,1,5.1-4.888,4.916,4.916,0,0,1,3.759,1.658l-.689.67a4.072,4.072,0,0,0-3.07-1.393,3.817,3.817,0,0,0-4.093,3.952,3.751,3.751,0,0,0,4.005,3.97,4.221,4.221,0,0,0,3.247-1.429l.689.67a5.123,5.123,0,0,1-3.935,1.694A4.65,4.65,0,0,1,527.7,424.12Z" transform="translate(-486.598 -415.421)"/><path class="c" d="M557.994,424.084a4.515,4.515,0,0,1,4.728-4.852,4.67,4.67,0,0,1,3.493,1.394V419.39h.954v9.493h-.954V427.6a4.522,4.522,0,0,1-3.457,1.429C559.882,429.025,557.994,427.12,557.994,424.084Zm8.221,2.311v-4.552a4.128,4.128,0,0,0-3.405-1.675,3.963,3.963,0,0,0,.036,7.922A3.969,3.969,0,0,0,566.215,426.4Z" transform="translate(-506.37 -415.421)"/><path class="c" d="M592.763,408.714h.988v13.3h-.988Z" transform="translate(-529.064 -408.556)"/><path class="c" d="M613.91,422.409l.406-.988a8.823,8.823,0,0,0,4.447,1.129c2.046,0,3.334-.864,3.334-2.488,0-1.711-1.587-2.065-3.687-2.522-2.629-.565-4.393-1.236-4.393-3.512,0-1.94,1.517-3.282,4.235-3.282a10.046,10.046,0,0,1,4.393.954l-.44.917a8.714,8.714,0,0,0-3.952-.917c-2.083,0-3.194,1.058-3.194,2.328,0,1.57,1.447,2.046,3.687,2.524,2.383.529,4.393,1.094,4.393,3.458,0,2.383-1.728,3.493-4.322,3.493A10.07,10.07,0,0,1,613.91,422.409Z" transform="translate(-542.866 -409.882)"/><path class="c" d="M645.075,424.12a5.075,5.075,0,1,1,5.082,4.9A4.787,4.787,0,0,1,645.075,424.12Zm9.14,0a4.068,4.068,0,1,0-4.058,3.97A3.865,3.865,0,0,0,654.215,424.12Z" transform="translate(-563.208 -415.421)"/><path class="c" d="M678.607,413.127H676.9v-.9h1.711v-.759c0-2.029.758-3.211,2.682-3.211a5.185,5.185,0,0,1,1.677.247v.882a4.8,4.8,0,0,0-1.553-.247c-1.394,0-1.852.687-1.852,2.4v.687h3.228v.9h-3.228v8.593h-.954Z" transform="translate(-583.977 -408.258)"/><path class="c" d="M696.569,419.037v-5.612h-1.675v-.9h1.675v-3.811h.954v3.811H701v.9h-3.476v5.524c0,1.623.388,2.293,1.835,2.293a5.541,5.541,0,0,0,1.728-.3v.971a6.435,6.435,0,0,1-1.852.264C697.134,422.177,696.569,421.136,696.569,419.037Z" transform="translate(-595.724 -408.556)"/><path class="c" d="M728.112,419.588l-3.371,9.582h-.6l-2.965-7.869-2.946,7.869h-.583l-3.388-9.582H715.3l2.665,7.8,2.911-7.852h.617l2.947,7.852,2.664-7.8Z" transform="translate(-608.364 -415.618)"/><path class="c" d="M756.045,424.084a4.515,4.515,0,0,1,4.728-4.852,4.668,4.668,0,0,1,3.493,1.394V419.39h.954v9.493h-.954V427.6a4.522,4.522,0,0,1-3.458,1.429C757.933,429.025,756.045,427.12,756.045,424.084Zm8.221,2.311v-4.552a4.128,4.128,0,0,0-3.4-1.675,3.963,3.963,0,0,0,.036,7.922A3.969,3.969,0,0,0,764.266,426.4Z" transform="translate(-635.637 -415.421)"/><path class="c" d="M790.765,419.39h.952v1.553a3.448,3.448,0,0,1,3.106-1.711,3.289,3.289,0,0,1,1.323.247v1.077a3.6,3.6,0,0,0-1.482-.335,3.05,3.05,0,0,0-2.947,3.369v5.294h-.952Z" transform="translate(-658.299 -415.421)"/><path class="c" d="M818.223,424.436h-8.558a3.791,3.791,0,0,0,3.988,3.67,4.165,4.165,0,0,0,3.476-1.517l.723.583a4.95,4.95,0,0,1-4.252,1.852,4.9,4.9,0,0,1-.16-9.793c3.017,0,4.782,2.046,4.782,4.922Zm-8.541-.864H817.2a3.506,3.506,0,0,0-3.74-3.424A3.7,3.7,0,0,0,809.682,423.572Z" transform="translate(-669.979 -415.421)"/><path class="c" d="M852.223,422.409l.406-.988a8.823,8.823,0,0,0,4.447,1.129c2.046,0,3.334-.864,3.334-2.488,0-1.711-1.587-2.065-3.687-2.522-2.629-.565-4.393-1.236-4.393-3.512,0-1.94,1.517-3.282,4.235-3.282a10.047,10.047,0,0,1,4.393.954l-.44.917a8.715,8.715,0,0,0-3.953-.917c-2.083,0-3.194,1.058-3.194,2.328,0,1.57,1.447,2.046,3.687,2.524,2.382.529,4.393,1.094,4.393,3.458,0,2.383-1.728,3.493-4.322,3.493A10.071,10.071,0,0,1,852.223,422.409Z" transform="translate(-698.412 -409.882)"/><path class="c" d="M883.388,424.12a5.075,5.075,0,1,1,5.081,4.9A4.787,4.787,0,0,1,883.388,424.12Zm9.14,0a4.068,4.068,0,1,0-4.058,3.97A3.865,3.865,0,0,0,892.528,424.12Z" transform="translate(-718.754 -415.421)"/><path class="c" d="M919.224,408.714h.988v13.3h-.988Z" transform="translate(-742.144 -408.556)"/><path class="c" d="M929.8,425.175v-5.488h.952V425.1c0,2.313,1.005,3.3,2.982,3.3a4.762,4.762,0,0,0,3.371-1.551v-7.165h.952v9.493H937.1v-1.287a5.344,5.344,0,0,1-3.529,1.429C931.087,429.322,929.8,428.087,929.8,425.175Z" transform="translate(-749.047 -415.718)"/><path class="c" d="M959.486,419.037v-5.612h-1.675v-.9h1.675v-3.811h.954v3.811h3.475v.9H960.44v5.524c0,1.623.388,2.293,1.835,2.293a5.541,5.541,0,0,0,1.728-.3v.971a6.443,6.443,0,0,1-1.852.264C960.051,422.177,959.486,421.136,959.486,419.037Z" transform="translate(-767.329 -408.556)"/><path class="c" d="M980.124,411.678a.833.833,0,0,1,.847-.83.818.818,0,0,1,.83.83.828.828,0,0,1-.83.828A.843.843,0,0,1,980.124,411.678Zm.335,2.24h.988v9.493h-.988Z" transform="translate(-781.893 -409.948)"/><path class="c" d="M990.495,424.12a5.075,5.075,0,1,1,5.081,4.9A4.787,4.787,0,0,1,990.495,424.12Zm9.139,0a4.068,4.068,0,1,0-4.058,3.97A3.865,3.865,0,0,0,999.634,424.12Z" transform="translate(-788.662 -415.421)"/><path class="c" d="M1026.282,419.39h.952v1.236a5.842,5.842,0,0,1,3.6-1.394c2.434,0,3.81,1.112,3.81,4.163v5.488h-.952v-5.417c0-2.488-1.129-3.3-3-3.3a5.352,5.352,0,0,0-3.458,1.481v7.235h-.952Z" transform="translate(-812.02 -415.421)"/></g><g transform="translate(168.898 85.886)"><path class="c" d="M390.022,227.458c0-14.67,9.638-23.455,22.859-23.455,5.545,0,12.453,1.7,16.889,6.737v-5.969h4.606v45.889H429.77v-6.226c-4.437,5.118-11,6.908-16.718,6.908C399.147,251.341,390.022,242.13,390.022,227.458Zm39.748,11.175V216.625c-3.924-5.628-10.491-8.1-16.463-8.1-10.491,0-18.424,6.994-18.424,18.935s7.421,19.364,18.6,19.364C419.534,246.821,426.015,244.347,429.77,238.633Z" transform="translate(-390.022 -186.346)"/><path class="c" d="M557.692,204.771H562.3v5.969c4.351-4.861,11.176-6.737,16.976-6.737,13.135,0,22.772,8.784,22.772,23.54,0,14.673-9.125,23.8-23.03,23.8-5.714,0-12.281-1.79-16.718-6.994v21.24h-4.605Zm39.493,22.773c0-12.026-7.933-19.02-18.424-19.02-5.971,0-12.539,2.475-16.463,8.1v22.007c3.755,5.714,10.322,8.189,16.377,8.189C589.764,246.821,597.185,239.486,597.185,227.543Z" transform="translate(-499.46 -186.346)"/><path class="c" d="M717.015,204.771h4.606v5.969C725.971,205.879,732.8,204,738.6,204c13.135,0,22.772,8.784,22.772,23.54,0,14.673-9.125,23.8-23.03,23.8-5.714,0-12.281-1.79-16.718-6.994v21.24h-4.606Zm39.493,22.773c0-12.026-7.933-19.02-18.424-19.02-5.971,0-12.539,2.475-16.463,8.1v22.007c3.755,5.714,10.322,8.189,16.377,8.189C749.087,246.821,756.508,239.486,756.508,227.543Z" transform="translate(-603.449 -186.346)"/><path class="c" d="M871.918,167.486a4.022,4.022,0,0,1,4.1-4.007,3.949,3.949,0,0,1,4.007,4.007,4,4,0,0,1-4.007,4.01A4.077,4.077,0,0,1,871.918,167.486Zm1.621,10.835h4.777v45.889h-4.777Z" transform="translate(-704.553 -159.896)"/><path class="c" d="M922,194.274c0-14.67,9.638-23.454,22.858-23.454,5.545,0,12.453,1.7,16.889,6.737V153.163h4.606v64.313H961.75v-6.312c-4.436,5.2-11,6.994-16.717,6.994C931.127,218.158,922,208.947,922,194.274ZM961.75,205.45V183.442c-3.923-5.628-10.491-8.1-16.463-8.1-10.491,0-18.424,6.994-18.424,18.935s7.421,19.364,18.6,19.364C951.428,213.638,958,211.164,961.75,205.45Z" transform="translate(-737.243 -153.163)"/></g></g></svg>