<svg xmlns="http://www.w3.org/2000/svg" width="2276" height="2520.9" viewBox="0 0 2276 2520.9"><defs><style>.a{fill:#888aa9;opacity:0.2;}.b{fill:#4c5a85;stroke:#707070;}.c{opacity:0.07;}.d{fill:#72c6ef;}.e{stroke:none;}.f{fill:none;}</style></defs><g transform="translate(1068 1143.9)"><circle class="a" cx="1068" cy="1068" r="1068" transform="translate(-928 -759)"/><g class="b" transform="translate(-1068 -1068)"><circle class="e" cx="1068" cy="1068" r="1068"/><circle class="f" cx="1068" cy="1068" r="1067.5"/></g><g class="c" transform="translate(-511.232 -4671.183)"><path class="d" d="M485.233,5260.183a872.57,872.57,0,0,1-174.571-17.6,861.92,861.92,0,0,1-309.9-130.4,868.841,868.841,0,0,1-313.869-381.171A862.45,862.45,0,0,1-363.616,4568.3a874.449,874.449,0,0,1,0-349.141,862,862,0,0,1,130.4-309.9,868.86,868.86,0,0,1,381.171-313.866,862.217,862.217,0,0,1,162.7-50.506,874.4,874.4,0,0,1,349.142,0,861.941,861.941,0,0,1,309.9,130.4,868.805,868.805,0,0,1,313.868,381.171,862.322,862.322,0,0,1,50.507,162.7,874.48,874.48,0,0,1,0,349.143,862,862,0,0,1-130.4,309.9,868.855,868.855,0,0,1-381.171,313.869,862.252,862.252,0,0,1-162.7,50.506A872.558,872.558,0,0,1,485.233,5260.183Zm0-1640.756c-426.954,0-774.306,347.353-774.305,774.3S58.278,5168.04,485.233,5168.037s774.305-347.353,774.305-774.306S912.185,3619.427,485.231,3619.427Z" transform="translate(0 0)"/></g></g></svg>
