<svg xmlns="http://www.w3.org/2000/svg" viewBox="0 0 46.27 44.99"><defs><style>.cls-1{fill:#f4764a;}</style></defs><g id="Layer_2" data-name="Layer 2"><g id="Layer_1-2" data-name="Layer 1"><path class="cls-1" d="M30.48,14.6a.76.76,0,0,1,.25-.53.72.72,0,0,1,.5-.2h.05a.82.82,0,0,1,.55.24l6.82,7.31h0a.75.75,0,0,1,.21.55.78.78,0,0,1-.25.54.79.79,0,0,1-.55.21.77.77,0,0,1-.54-.24l-6.83-7.3a.84.84,0,0,1-.21-.58M38,24.79h.1A2.79,2.79,0,0,0,40,24a2.76,2.76,0,0,0,.9-2,2.79,2.79,0,0,0-.76-2l-6.82-7.3a2.85,2.85,0,0,0-4.16,3.89L36,23.89a2.84,2.84,0,0,0,2,.9"/><path class="cls-1" d="M23.79,21.92a1,1,0,0,0,0-2.06H21.85a1,1,0,0,0-1,1V37.24a3,3,0,0,0,3,3H34.05a1,1,0,0,0,1-1V31.88a6.08,6.08,0,0,0-1.51-4A1,1,0,0,0,32,29.21a4.07,4.07,0,0,1,1,2.67v6.3h-9.2a.94.94,0,0,1-.94-.94V21.92Z"/><path class="cls-1" d="M44.48,18.19,34.84,7.59l-.06-.07c-1-1.15-1.86-2-3.82-2h-1.3V3.72a1,1,0,0,0-1-1H26.16V1A1,1,0,1,0,24.1,1V2.69H22.28a1,1,0,0,0-1,1V5.47H20.18a4.84,4.84,0,0,0-4.84,4.83,1,1,0,0,0,2.07,0,2.77,2.77,0,0,1,2.77-2.77h2.1a1,1,0,0,0,1-1V4.75H27.6V6.5a1,1,0,0,0,1,1H31c1,0,1.3.29,2.29,1.38L43,19.58a4.88,4.88,0,0,1,1.26,3.27V42.59a.34.34,0,0,1-.34.33H17.75a.34.34,0,0,1-.34-.33v-21a1,1,0,1,0-2.07,0v21A2.41,2.41,0,0,0,17.75,45H43.87a2.41,2.41,0,0,0,2.4-2.4V22.85a7,7,0,0,0-1.79-4.66"/><path class="cls-1" d="M12.49,19.14A10.77,10.77,0,0,0,9,15.63a11,11,0,0,0,3.5-3.51A11.1,11.1,0,0,0,16,15.63a10.9,10.9,0,0,0-3.51,3.51m6.69-2.48a1,1,0,1,0,0-2.06c-2.28,0-5.65-3.38-5.65-5.65a1,1,0,1,0-2.07,0c0,2.27-3.38,5.65-5.65,5.65a1,1,0,1,0,0,2.06c2.27,0,5.65,3.38,5.65,5.65a1,1,0,0,0,2.07,0c0-2.27,3.37-5.65,5.65-5.65"/><path class="cls-1" d="M3.77,6.24a7.79,7.79,0,0,0,1.69-1.7,7.83,7.83,0,0,0,1.7,1.7,7.57,7.57,0,0,0-1.7,1.69A7.53,7.53,0,0,0,3.77,6.24M6.5,10.67c0-1.3,2.09-3.4,3.39-3.4a1,1,0,1,0,0-2.07C8.59,5.2,6.5,3.11,6.5,1.8a1,1,0,0,0-2.07,0c0,1.31-2.1,3.4-3.4,3.4A1,1,0,0,0,1,7.27c1.3,0,3.4,2.1,3.4,3.4a1,1,0,0,0,2.07,0"/></g></g></svg>