<svg xmlns="http://www.w3.org/2000/svg" viewBox="0 0 42.85 42.74"><defs><style>.cls-1{fill:#f4764a;}</style></defs><g id="Layer_2" data-name="Layer 2"><g id="Layer_1-2" data-name="Layer 1"><path class="cls-1" d="M40.76,8a1.54,1.54,0,0,1-1.53,1.54H33.86a1,1,0,1,0,0,2.09h3.71l-2,9.4A29,29,0,0,0,30,20.68v-2.8a2.74,2.74,0,0,0-2.74-2.74H15.62a2.75,2.75,0,0,0-2.75,2.74v2.8a28.61,28.61,0,0,0-5.64.38L5.29,11.64H29.65a1,1,0,1,0,0-2.09h-26A1.54,1.54,0,0,1,2.09,8V3.63A1.54,1.54,0,0,1,3.63,2.09h35.6a1.54,1.54,0,0,1,1.53,1.54ZM15,25.71V17.88a.66.66,0,0,1,.66-.65H27.24a.65.65,0,0,1,.65.65v7.83a.66.66,0,0,1-.65.66H15.62a.67.67,0,0,1-.66-.66M32.23,37.46a.24.24,0,0,1-.23.19H20.38a1,1,0,1,0,0,2.09h7.51V40a.65.65,0,0,1-.65.65H15.62A.66.66,0,0,1,15,40v-.26h1.46a1,1,0,1,0,0-2.09H10.85a.22.22,0,0,1-.22-.19l-3-14.35a25.51,25.51,0,0,1,5.21-.34v2.94a2.75,2.75,0,0,0,2.75,2.75H27.24A2.75,2.75,0,0,0,30,25.71V22.78a25.24,25.24,0,0,1,5.22.32ZM39.23,0H3.63A3.64,3.64,0,0,0,0,3.63V8a3.62,3.62,0,0,0,3.14,3.58L5.39,22.45h0L8.58,37.89a2.33,2.33,0,0,0,2.27,1.85h2V40a2.75,2.75,0,0,0,2.75,2.74H27.24A2.74,2.74,0,0,0,30,40v-.26h2a2.32,2.32,0,0,0,2.27-1.85l3.12-15.07a.93.93,0,0,0,.15-.37.87.87,0,0,0,0-.36l2.17-10.5A3.62,3.62,0,0,0,42.85,8V3.63A3.63,3.63,0,0,0,39.23,0"/></g></g></svg>