<svg xmlns="http://www.w3.org/2000/svg" viewBox="0 0 31.1 46.83"><defs><style>.cls-1{fill:#f4764a;}</style></defs><g id="Layer_2" data-name="Layer 2"><g id="Layer_1-2" data-name="Layer 1"><path class="cls-1" d="M2,27.82H29.11v4.07c0,2.44-1.64,4.43-3.69,4.53l-1.78-4.55H7.46L5.67,36.42c-2-.1-3.68-2.09-3.68-4.53ZM5.84,38.43H7.3v8.4H16a1,1,0,1,0,0-2H9.28v-11H21.81v11H20.49a1,1,0,1,0,0,2H23.8v-8.4h1.46c3.22,0,5.84-2.94,5.84-6.54V11.07a1,1,0,0,0-2,0V25.84H2V6.54C2,4,3.71,2,5.84,2H25.26c2.12,0,3.85,2,3.85,4.55a1,1,0,0,0,2,0C31.1,2.93,28.48,0,25.26,0H5.84C2.62,0,0,2.93,0,6.54V31.89c0,3.6,2.62,6.54,5.84,6.54"/></g></g></svg>