<svg xmlns="http://www.w3.org/2000/svg" viewBox="0 0 43.93 49.78"><defs><style>.cls-1{fill:#f4764a;}</style></defs><g id="Layer_2" data-name="Layer 2"><g id="Layer_1-2" data-name="Layer 1"><path class="cls-1" d="M34.71,47.93c-3.48,0-7.36-9.46-7.36-23,0-1.32,0-2.65.11-3.94a.93.93,0,0,0-1.85-.11c-.08,1.33-.12,2.69-.12,4.05a57,57,0,0,0,2.39,17L15.13,30a.9.9,0,0,0-.51-.24L3.68,28.31a2.1,2.1,0,0,1-1.82-2.08V23.55a2.1,2.1,0,0,1,1.82-2.08L14.62,20a.9.9,0,0,0,.51-.24l12.8-12a39.55,39.55,0,0,0-1.31,4.92.93.93,0,1,0,1.82.36C29.79,6.37,32.3,1.86,34.71,1.86c3.48,0,7.36,9.46,7.36,23s-3.88,23-7.36,23M34.71,0C33,0,31.39,1.17,30,3.31L14.08,18.24,3.44,19.63A4,4,0,0,0,0,23.55v2.68a4,4,0,0,0,3.44,3.92l10.64,1.39L29.85,46.33c1.33,2.15,3,3.45,4.86,3.45,6,0,9.22-12.82,9.22-24.89S40.7,0,34.71,0"/><path class="cls-1" d="M35.09,5.79c-3.06,0-4.89,9.71-4.89,19.1S32,44,35.09,44c2.31,0,3.55-5.35,4.09-8.55a.93.93,0,0,0-1.83-.31c-.74,4.43-1.77,6.48-2.26,6.94-1-.86-3-6.64-3-17.18s2.07-16.33,3-17.18c1,.85,3,6.63,3,17.18,0,1.17,0,2.32-.08,3.42a.91.91,0,0,0,.88,1,.93.93,0,0,0,1-.88c.06-1.13.08-2.31.08-3.51,0-9.39-1.83-19.1-4.89-19.1"/></g></g></svg>