<svg xmlns="http://www.w3.org/2000/svg" viewBox="0 0 46.48 40.47"><defs><style>.cls-1{fill:#f4764a;}</style></defs><g id="Layer_2" data-name="Layer 2"><g id="Layer_1-2" data-name="Layer 1"><path class="cls-1" d="M41.39,37A10.75,10.75,0,0,1,34,38.83l-3.77-3.57a11.68,11.68,0,0,0,2.94-2.57c1-1.37.89-2.25.58-2.75a1.32,1.32,0,0,0-.29-.33h0a2.64,2.64,0,0,0,.14-2.18A1.9,1.9,0,0,0,33.3,27a2.58,2.58,0,0,0,.51-.92,2.31,2.31,0,0,0-.41-2.16,2.94,2.94,0,0,0-2.35-.82,1.69,1.69,0,0,0-.35-1c-.9-1.11-3.07-.86-4.28-.62s-9.51.71-14.19.93l0,0s-3.45-3-4.44-4C7,17.63,5.63,16.36,4.3,15.14L2.77,13.73c-1-.89-1.34-1.51-1.13-1.83s.91.08,1.21.24c.85.44,5.35,4.17,8,6.42A.79.79,0,0,0,12,17.46c-2.17-2.64-4.55-5.65-4.77-6.09-.28-.68-1.61-2.93-1.76-3.19A.79.79,0,0,0,5.31,8C4.84,7.55,3.89,6.3,4,5.54c0-.14.1-.36.5-.57,1.41-.74,3.3,1.8,3.86,2.76,3.89,6.51,6.21,8.39,7.2,8.93a1.89,1.89,0,0,1,0,.94.26.26,0,0,1-.18.2.78.78,0,1,0,.54,1.47A1.82,1.82,0,0,0,17,18.11a4,4,0,0,0,0-2,.64.64,0,0,0-.06-.28c-.62-2.71-2.81-6.61-5.21-10.55l-.25-.41c-.62-1-.81-1.91-.49-2.33a1,1,0,0,1,1-.24c1,.27,3.86,5.44,5.23,7.92.89,1.61,1.66,3,2.18,3.74,1.61,2.29,2.88,2.27,3.35,2.15a1.22,1.22,0,0,0,1-1.05c.13-1-.79-4.67-3.54-9.2-1.29-2.13-1.56-3.35-1.55-4,0-.28.59-.28.6-.28h0c2.55,0,3.8,2.57,5.63,6.76.53,1.2,1.07,2.44,1.7,3.69,2.57,5.07,4.73,4.52,7.09,3.36a9.28,9.28,0,0,1,.85-.39c1.17-.49,2.17-1.81,3.32-3.35,1.28-1.7,2.73-3.62,4.43-4.27,1.43-.54,2.06-.38,2.31-.23a.56.56,0,0,1,.21.19c-.81,1.25-3.36,5.3-3.68,7.43a56.24,56.24,0,0,1-1.59,6c-.47,1.6-.89,3-1,3.73-.37,1.89,3.6,4.32,6.34,5.75-.4,3.07-1.56,5.37-3.47,6.83m-16.92-.44c-3.73,1.78-6.2,1.52-7.72,1.16a20.11,20.11,0,0,1-4.22-2.14.78.78,0,0,0-1.08.24.79.79,0,0,0,.24,1.08l.5.31a11.56,11.56,0,0,1-3.42-.87,6.26,6.26,0,0,1-3.5-3.66c-1-2.32-1.18-5.13-.41-6.83A3,3,0,0,1,6.4,24.15a2,2,0,0,1,.85-.1c-.36,1.8-.88,6.34,2,10.14a.78.78,0,0,0,1.24-.95c-3.12-4.1-1.59-9.47-1.57-9.53s0-.07,0-.1,0-.08,0-.12a1,1,0,0,0,0-.17l0-.11s0,0,0,0c-.15-.34-.08-.47-.06-.52a1.32,1.32,0,0,1,.74-.45l.5.43a.78.78,0,0,0-.39.7.81.81,0,0,0,.82.75c.58,0,14.28-.66,16.21-1,1.59-.32,2.59-.15,2.76.06,0,0,0,.15-.07.38a1,1,0,0,0-.15.13c-.59.66-5.63,2.39-10.15,3.67a37.27,37.27,0,0,1-4,.19.79.79,0,0,0,0,1.57h0a35.3,35.3,0,0,0,4.36-.25c2.83-.8,9.32-2.74,10.78-4l.22-.09c1.19-.15,1.58.12,1.69.25a.81.81,0,0,1,.09.71c-.14.47-1.38,1.79-5.14,3.38a50.59,50.59,0,0,1-9.42,2.42.8.8,0,0,0-.66.9.78.78,0,0,0,.78.66H18a51.19,51.19,0,0,0,9.79-2.53,20,20,0,0,0,4.35-2.38c.07,0,.12.05.13.07a1.11,1.11,0,0,1-.1.65,19.32,19.32,0,0,1-12.11,6.26.78.78,0,0,0,0,1.56h0a20.29,20.29,0,0,0,12.26-5.81l.07,0a2.22,2.22,0,0,1-.48.91c-1.25,1.64-3.79,3.07-7.49,4.83M46.05,29c-3.08-1.56-5.93-3.62-6-4.29.13-.68.56-2.09,1-3.59A58.72,58.72,0,0,0,42.7,15c.26-1.73,2.72-5.72,3.65-7.12a.78.78,0,0,0,.13-.52,2.25,2.25,0,0,0-1-1.54c-.88-.53-2.12-.5-3.7.1-2.13.8-3.72,2.92-5.13,4.79-1,1.3-1.89,2.52-2.67,2.84-.32.13-.63.28-.94.44-1.76.86-2.92,1.44-5-2.66-.61-1.21-1.15-2.43-1.66-3.62C24.55,3.57,23,0,19.29,0h0a2,2,0,0,0-2.16,1.85,10,10,0,0,0,1.79,4.81,24.2,24.2,0,0,1,3.29,7.84,4.13,4.13,0,0,1-1.45-1.45c-.47-.68-1.22-2-2.09-3.6C15.88,4.47,14,1.18,12.42.77a2.48,2.48,0,0,0-2.65.82c-.42.57-.93,1.86.41,4.08l.25.41a69.4,69.4,0,0,1,4.22,7.76A40.29,40.29,0,0,1,9.72,6.93C8.65,5.09,6.2,2.31,3.78,3.58A2.32,2.32,0,0,0,2.46,5.3C2.21,6.91,3.74,8.65,4.13,9.06,4.68,10,5.57,11.55,5.75,12a4,4,0,0,0,.43.69,23.45,23.45,0,0,0-2.6-1.91c-1.89-1-2.82-.38-3.26.31-.9,1.4.27,2.77,1.38,3.81l1.54,1.42c1.31,1.21,2.67,2.46,3.39,3.21.36.37,1,.95,1.68,1.57a2.16,2.16,0,0,0-.84.83,2,2,0,0,0-.2.58,3.35,3.35,0,0,0-1.38.19,4.47,4.47,0,0,0-2.46,2.56c-1,2.11-.78,5.36.41,8.1a7.84,7.84,0,0,0,4.42,4.51,13.8,13.8,0,0,0,3.9,1,3,3,0,0,0,1.7-.55l.05,0a11.85,11.85,0,0,0,2.49,1.05,10.82,10.82,0,0,0,2.53.3A14.29,14.29,0,0,0,25.14,38c1.42-.67,2.66-1.29,3.73-1.9l4.28,4.06a.88.88,0,0,0,.41.2,11.28,11.28,0,0,0,1.72.12,11.68,11.68,0,0,0,7-2.2c2.38-1.82,3.77-4.66,4.15-8.45a.8.8,0,0,0-.43-.78"/><path class="cls-1" d="M34.8,36.86a.78.78,0,0,0-.87.68.77.77,0,0,0,.67.87s.26,0,.67,0c1.82,0,6.91-.59,8.78-6.94a.79.79,0,0,0-.53-1,.8.8,0,0,0-1,.53c-1.89,6.45-7.49,5.83-7.74,5.8"/></g></g></svg>