<svg xmlns="http://www.w3.org/2000/svg" viewBox="0 0 25.74 48.47"><defs><style>.cls-1{fill:#f4764a;}</style></defs><g id="Layer_2" data-name="Layer 2"><g id="Layer_1-2" data-name="Layer 1"><path class="cls-1" d="M22.44,5.41H18a1,1,0,0,0,0,2h4l-.32,4H12.39A2.7,2.7,0,0,0,9.7,14.07V28.35A2.69,2.69,0,0,0,12.39,31H20l-.62,7.62a1,1,0,0,1-.42.09H6.71a.91.91,0,0,1-.41-.09L3.75,7.4H14.13a1,1,0,0,0,0-2H3.31L2.13,2H23.62ZM20.18,29.05H12.39a.7.7,0,0,1-.7-.7V14.07a.7.7,0,0,1,.7-.7h9.13l-.21,1.75ZM8.44,46.48l.37-5.75H17l.37,5.75Zm17-45.7A1.9,1.9,0,0,0,23.91,0H1.78A1.84,1.84,0,0,0,.28.77,1.57,1.57,0,0,0,.09,2.19L1.71,6.88,4.33,39a2.2,2.2,0,0,0,2.38,1.74h.11l-.38,5.94a1.57,1.57,0,0,0,.33,1.17,1.6,1.6,0,0,0,1,.61l.16,0h9.77a1.6,1.6,0,0,0,1.64-1.59L19,40.73h0A2.22,2.22,0,0,0,21.37,39l1.92-23.65.22-1.86L24,6.88,25.65,2.2A1.51,1.51,0,0,0,25.46.78"/></g></g></svg>