<svg xmlns="http://www.w3.org/2000/svg" viewBox="0 0 34.85 49.64"><defs><style>.cls-1{fill:#f4764a;}</style></defs><g id="Layer_2" data-name="Layer 2"><g id="Layer_1-2" data-name="Layer 1"><path class="cls-1" d="M16.82,1.83a7.5,7.5,0,0,1,7.59,7.39,7.59,7.59,0,0,1-15.17,0,7.49,7.49,0,0,1,7.58-7.39m0,16.62a9.33,9.33,0,0,0,9.42-9.23A9.33,9.33,0,0,0,16.82,0,9.33,9.33,0,0,0,7.41,9.22a9.33,9.33,0,0,0,9.41,9.23"/><path class="cls-1" d="M32.9,39.61a4.39,4.39,0,0,1-1.57,2.11l-.09.06c-2.3,1.68-13.12,3.24-14.91,3.15-.91,0-1.1-.52-1.13-.58a1.15,1.15,0,0,0-.06-.17L5.92,24.64a9.16,9.16,0,0,1,1.83-1.38A30.57,30.57,0,0,0,25.56,34.77c.4.1.81.19,1.23.26a31.5,31.5,0,0,0,3.94.53l.54,0a5.84,5.84,0,0,1,1.47,2A3.4,3.4,0,0,1,33,38.72a2.73,2.73,0,0,1-.12.89M11.54,44.53a3.07,3.07,0,0,1-2-.47,1.92,1.92,0,0,1-.88-1.37,2.48,2.48,0,0,1,2.47-2.38l.17,0,1.89,4ZM29.82,28a8.64,8.64,0,0,1,.46,2.17l.3,3.58a24,24,0,0,1-2.46-.3A10.2,10.2,0,0,0,29.82,28m4.78,9.38a7.31,7.31,0,0,0-2.14-3.11L32.11,30A10.55,10.55,0,0,0,29,23.31l-.25-.24s0,0,0,0a10.52,10.52,0,0,0-7.08-2.75H12.05a.91.91,0,0,0-.92.91.92.92,0,0,0,.92.92H21.6a8.75,8.75,0,0,1,5.84,2.26h0A9.08,9.08,0,0,1,26.15,33,29.2,29.2,0,0,1,8.86,21.65l0,0a0,0,0,0,1,0,0,.79.79,0,0,0-.14-.17l-.14-.11,0,0a1,1,0,0,0-.18-.08H8.25a.65.65,0,0,0-.19,0H7.89l-.14,0h0l-.06,0a8.77,8.77,0,0,0-3.4,2.48l-.08.08-.09.11A.75.75,0,0,0,4,24a.8.8,0,0,0-.09.26,1,1,0,0,0,0,.17.77.77,0,0,0,0,.25.27.27,0,0,0,0,.14v0l6.45,13.68a4.22,4.22,0,0,0-3.65,4.32,3.69,3.69,0,0,0,1.67,2.69,4.83,4.83,0,0,0,2.71.81,5.12,5.12,0,0,0,.56,0L14.21,46a3.13,3.13,0,0,0,2,.77h.17c1.91,0,11.19-1.15,15-3l.33,4H1.91L3.36,30.13a9.78,9.78,0,0,1,.31-1.7.91.91,0,1,0-1.76-.5A10,10,0,0,0,1.54,30L0,48.66a.92.92,0,0,0,.25.69.87.87,0,0,0,.67.29H32.73a.9.9,0,0,0,.67-.29.88.88,0,0,0,.24-.69l-.5-6.11a4.83,4.83,0,0,0,1.46-5.21"/></g></g></svg>