<svg xmlns="http://www.w3.org/2000/svg" viewBox="0 0 48.72 48.71"><defs><style>.cls-1{fill:#f4764a;}</style></defs><g id="Layer_2" data-name="Layer 2"><g id="Layer_1-2" data-name="Layer 1"><path class="cls-1" d="M12.83,48.71A12.6,12.6,0,0,1,3.88,45l-.17-.17a12.65,12.65,0,0,1,0-17.9A.93.93,0,1,1,5,28.25,10.79,10.79,0,0,0,5,43.53l.17.17a10.82,10.82,0,0,0,15.28,0L43.71,20.46a10.82,10.82,0,0,0,0-15.28L43.54,5A10.83,10.83,0,0,0,28.25,5L7.12,26.14a.91.91,0,0,1-1.31,0,.93.93,0,0,1,0-1.31L27,3.7a12.67,12.67,0,0,1,17.9,0l.17.17a12.68,12.68,0,0,1,0,17.9L21.78,45a12.61,12.61,0,0,1-9,3.7"/><path class="cls-1" d="M22.48,36.31a4.24,4.24,0,0,1-3-1.23l-5.85-5.85a4.23,4.23,0,0,1,0-6l9.61-9.62a4.25,4.25,0,0,1,6,0l5.86,5.86a4.24,4.24,0,0,1,0,6,.93.93,0,0,1-1.31-1.31,2.38,2.38,0,0,0,0-3.35l-5.86-5.86a2.39,2.39,0,0,0-3.36,0L15,24.56a2.37,2.37,0,0,0,0,3.36l5.85,5.85a2.37,2.37,0,0,0,3.36,0l7.09-7.09A.93.93,0,0,1,32.56,28l-7.09,7.09a4.22,4.22,0,0,1-3,1.23"/><path class="cls-1" d="M7.33,33.55a.75.75,0,1,1-1.06,0,.74.74,0,0,1,1.06,0"/><path class="cls-1" d="M11.23,37.44a.75.75,0,1,1-1.07,0,.75.75,0,0,1,1.07,0"/><path class="cls-1" d="M15.12,41.33a.75.75,0,1,1-1.06,0,.75.75,0,0,1,1.06,0"/><path class="cls-1" d="M10.93,30a.76.76,0,1,1-1.07,0,.77.77,0,0,1,1.07,0"/><path class="cls-1" d="M14.82,33.84a.75.75,0,1,1-1.06,0,.75.75,0,0,1,1.06,0"/><path class="cls-1" d="M18.72,37.74a.75.75,0,1,1-1.07,0,.75.75,0,0,1,1.07,0"/><path class="cls-1" d="M31,9.86a.75.75,0,1,1-1.06,0,.74.74,0,0,1,1.06,0"/><path class="cls-1" d="M34.92,13.75a.76.76,0,1,1-1.07,0,.77.77,0,0,1,1.07,0"/><path class="cls-1" d="M38.81,17.64a.76.76,0,1,1-1.07,0,.77.77,0,0,1,1.07,0"/><path class="cls-1" d="M34.62,6.26a.76.76,0,1,1-1.07,0,.77.77,0,0,1,1.07,0"/><path class="cls-1" d="M38.51,10.15a.75.75,0,0,1,0,1.07.74.74,0,0,1-1.06,0,.75.75,0,0,1,1.06-1.07"/><path class="cls-1" d="M42.41,14.05a.75.75,0,0,1-1.07,1.06.74.74,0,0,1,0-1.06.75.75,0,0,1,1.07,0"/></g></g></svg>