<svg xmlns="http://www.w3.org/2000/svg" viewBox="0 0 46.68 29.75"><defs><style>.cls-1{fill:#f4764a;}</style></defs><g id="Layer_2" data-name="Layer 2"><g id="Layer_1-2" data-name="Layer 1"><path class="cls-1" d="M17.28,8.23c-3.13,0-4.91-.85-5.22-1.25.31-.4,2.09-1.25,5.22-1.25S22.2,6.58,22.5,7c-.3.4-2.08,1.25-5.22,1.25m0-4.6c-3.53,0-7.34,1-7.34,3.35s3.81,3.35,7.34,3.35S24.63,9.28,24.63,7s-3.81-3.35-7.35-3.35"/><path class="cls-1" d="M17.29,27.65c-9.41,0-15.19-2.84-15.19-4.88V10.43A13.89,13.89,0,0,0,6,12.35a30.09,30.09,0,0,0,4.83,1.14c.78.11,1.58.21,2.38.29,1.33.12,2.7.18,4.08.18a42.77,42.77,0,0,0,7.12-.58,1.05,1.05,0,0,0,.85-1.22,1,1,0,0,0-1.21-.85,40.58,40.58,0,0,1-6.76.55c-1.31,0-2.62-.06-3.88-.18-.76-.06-1.52-.16-2.26-.27a27.9,27.9,0,0,1-4.48-1.05C3.85,9.42,2.1,8.12,2.1,7c0-2,5.78-4.88,15.19-4.88S32.47,4.94,32.47,7c0,1-1.45,2.22-3.87,3.13a1.05,1.05,0,0,0,.74,2,13,13,0,0,0,3.13-1.62V22.77c0,2-5.78,4.88-15.18,4.88M45.68,24,44.79,24a40.46,40.46,0,0,1-10.22-2V6.81a49.85,49.85,0,0,0,10,1.62V20.8a1,1,0,0,0,2.1,0V7.44a1,1,0,0,0-1-1.05,44.75,44.75,0,0,1-12.37-2.2C30.48,1.46,23.73,0,17.29,0,8.91,0,0,2.45,0,7V22.77c0,4.54,8.91,7,17.29,7,7.51,0,15.43-2,17-5.65A43.1,43.1,0,0,0,44.64,26l.93.06h.06a1.05,1.05,0,0,0,0-2.1"/></g></g></svg>