<svg xmlns="http://www.w3.org/2000/svg" viewBox="0 0 35.8 49.92"><defs><style>.cls-1{fill:#f4764a;}</style></defs><g id="Layer_2" data-name="Layer 2"><g id="Layer_1-2" data-name="Layer 1"><path class="cls-1" d="M23.7,41.36C23.7,45,19,48,13.16,48S2.62,45,2.62,41.36V29.79a9.58,9.58,0,0,0,1.57,1.37,1,1,0,0,0,.56.18,1,1,0,0,0,.56-1.76,5.53,5.53,0,0,1-2.69-4.39,5.2,5.2,0,0,1,2.1-3.94c.59,1,1.26,2.07,2,3.25a1,1,0,0,0-.19.22A1,1,0,0,0,6.91,26a13.27,13.27,0,0,0,6.25,1.5A12,12,0,0,0,21,25a1,1,0,0,0-.82-1.67c-.41-.88-1.05-2.26-1.76-3.84,3.2,1.18,5.32,3.38,5.32,5.74,0,3.65-4.73,6.62-10.54,6.62a15.73,15.73,0,0,1-5-.8,1,1,0,0,0-1.23.6,1,1,0,0,0,.6,1.23,17.35,17.35,0,0,0,5.63.91c4.43,0,8.33-1.6,10.54-4ZM12.28,11.25l.26-.14c1.29,3.11,4.6,10.32,5.84,13a.67.67,0,0,0-.2,0,8.19,8.19,0,0,1-8-4.39,1,1,0,0,0-1.73.87,9.52,9.52,0,0,0,5.84,5c-.38,0-.78.06-1.17.06A11.78,11.78,0,0,1,9.31,25c-1.18-1.84-2.38-3.81-3.47-5.68h0a57.06,57.06,0,0,1-3.72-7.18,11.06,11.06,0,0,0,10.16-.84M33.1,1.9a7.9,7.9,0,0,0-5-1.9,1,1,0,0,0-1,.94,1,1,0,0,0,.94,1,5.94,5.94,0,0,1,3.75,1.42,6.2,6.2,0,0,1,2,4.93,9.25,9.25,0,0,1-2.37,5.85,9.79,9.79,0,0,1-2.28,1.94,9.26,9.26,0,0,1-1.21.63,9.49,9.49,0,0,1-1.27.43,7.48,7.48,0,0,1-2.69.18l-.64-.07-1.17,2a12.33,12.33,0,0,0-2.71-1.48l1.15-2-.43-.52c-2.18-2.63-1.77-7,1-10.12a9.49,9.49,0,0,1,4.11-2.8A1,1,0,0,0,24.68.53,11.49,11.49,0,0,0,19.74,3.9C16.57,7.54,16,12.6,18.33,16l-.7,1.21-.32-.08c-1.32-2.9-2.65-5.9-3.2-7.3A1.3,1.3,0,0,0,13.34,9c-.66-.24-1.26.1-2,.52-1.54.87-4.42,2.49-9.3.4a1.39,1.39,0,0,0-1.73.27c-.38.45-1.16,1.38,3.43,9.33a7.41,7.41,0,0,0-3,4.88h0V41.36c0,4.72,5.6,8.56,12.48,8.56s12.48-3.84,12.48-8.56V24.44h-.05a6.93,6.93,0,0,0-1.88-3.85l.75-1.29A9.53,9.53,0,0,0,27.2,19a11,11,0,0,0,1.56-.53,10.77,10.77,0,0,0,1.47-.76A11.8,11.8,0,0,0,33,15.41,11.2,11.2,0,0,0,35.8,8.33,8.13,8.13,0,0,0,33.1,1.9"/></g></g></svg>